PathFileType	4	(X/Y/Z)	C:\Users\ebm\Documents\Erivelton\Erivelton2\wc8.trc
DataRate	CameraRate	NumFrames	NumMarkers	Units	OrigDataRate	OrigDataStartFrame	OrigNumFrames
150.00	150.00	      13	28	mm	150.00	717	      1146
Frame#	Time	IJ			PX			C7			T8			RAC			RAS			RPS			RAI			RPI			RLE			RME			RRS			RUS			R3M			R5M			LAC			LAS			LPS			LAI			LPI			LLE			LME			LRS			LUS			L3M			L5M			RW			LW			V_mid_elbow_r			V_mid_elbow_l			V_mid_wrist_r			V_mid_wrist_l			V_mid_trunk_low			V_mid_trunk_upp			
		X1	Y1	Z1	X2	Y2	Z2	X3	Y3	Z3	X4	Y4	Z4	X5	Y5	Z5	X6	Y6	Z6	X7	Y7	Z7	X8	Y8	Z8	X9	Y9	Z9	X10	Y10	Z10	X11	Y11	Z11	X12	Y12	Z12	X13	Y13	Z13	X14	Y14	Z14	X15	Y15	Z15	X16	Y16	Z16	X17	Y17	Z17	X18	Y18	Z18	X19	Y19	Z19	X20	Y20	Z20	X21	Y21	Z21	X22	Y22	Z22	X23	Y23	Z23	X24	Y24	Z24	X25	Y25	Z25	X26	Y26	Z26	X27	Y27	Z27	X28	Y28	Z28	

717	4.773	1852.23267	1028.70288	-30.87954	1855.33582	863.74237	-4.62891	1732.47083	1136.37695	-51.71050	1646.70349	989.90979	-41.74010	1775.22546	1082.19543	165.66953	1836.45898	895.45471	213.99852	1790.87598	889.12677	233.85611	1862.82202	823.78552	230.08818	1814.54041	813.83698	252.73022	1852.11255	751.70148	253.00291	1811.69934	724.60620	188.14897	2065.89673	740.01691	76.79446	2073.60742	714.47925	134.39006	2149.03979	711.04016	85.16929	2140.51440	691.46954	118.59723	1778.68555	1064.92981	-226.49654	1825.25281	898.36383	-289.29758	1780.61523	878.51111	-290.63950	1863.92249	827.47449	-297.26114	1814.55042	802.14014	-298.39862	1893.38525	741.28723	-302.00427	1847.52783	709.69208	-249.19041	2096.13721	726.55823	-122.74434	2113.86597	698.77985	-178.80618	2186.09009	700.40753	-138.48581	2167.12549	686.15479	-173.67957	1744.42200	298.26996	293.91107	1800.60193	298.34277	-332.70074	
718	4.780	1860.30005	1028.78564	-30.17569	1863.63428	863.79639	-3.92290	1740.59302	1136.39624	-50.97901	1654.82935	989.92267	-41.20583	1783.05811	1082.17346	166.39085	1844.47571	895.52319	214.74826	1798.76770	889.13348	234.53589	1870.84485	823.79889	230.77681	1822.59595	813.82880	253.42567	1860.09424	751.73444	253.70027	1819.72827	724.58606	188.79196	2073.88770	740.05341	77.59015	2081.58887	714.52563	135.22586	2157.01318	710.99011	85.89342	2148.54126	691.47760	119.39466	1787.02222	1065.06641	-225.81091	1833.54675	898.52881	-288.64340	1788.96045	878.67041	-289.96738	1872.15125	827.61334	-296.57968	1822.89417	802.27606	-297.68207	1901.67578	741.33228	-301.39630	1855.76978	709.94409	-248.50180	2104.46851	726.52069	-121.93201	2122.10181	698.72430	-178.05087	2194.25879	700.32452	-137.67844	2175.44336	686.05652	-172.99284	1752.41284	298.41336	294.49246	1809.08130	298.29440	-332.06680	
719	4.787	1868.56311	1028.83618	-29.36211	1870.33728	863.90540	-3.24719	1748.70007	1136.42163	-50.30704	1663.00146	989.88354	-40.68978	1791.08838	1082.28284	167.09172	1852.45190	895.53491	215.37192	1806.84583	889.11450	235.17924	1878.83569	823.78918	231.49342	1830.52966	813.82996	254.12697	1868.14697	751.69781	254.37019	1827.78162	724.59760	189.47688	2082.04785	740.06879	78.36644	2089.76099	714.51135	135.92059	2165.15845	711.00586	86.69473	2156.60840	691.36835	120.07468	1795.33105	1065.20947	-225.09178	1841.95569	898.66351	-287.80707	1797.29688	878.82794	-289.32986	1880.56519	827.70459	-295.77011	1831.29211	802.42804	-297.04224	1909.97449	741.59332	-300.60861	1864.11218	709.95288	-247.75461	2112.75122	726.53912	-121.10061	2130.37305	698.73065	-177.31265	2202.65186	700.29468	-136.80382	2183.68701	685.97070	-172.18674	1760.27844	298.58038	295.07956	1817.51416	298.26227	-331.39432	
720	4.793	1876.65442	1028.94409	-28.64997	1878.00391	863.42102	-2.80116	1756.73975	1136.43188	-49.59764	1671.27234	989.90430	-40.13388	1798.99780	1082.33972	167.78177	1860.35291	895.44452	216.09898	1814.81030	889.07941	235.85342	1886.86987	823.78973	232.09660	1838.56116	813.80646	254.81770	1876.15918	751.69019	255.05162	1835.76770	724.62219	190.17075	2090.11597	739.99213	79.11694	2097.80078	714.51123	136.74556	2173.25391	710.97052	87.48843	2164.72485	691.36768	120.88297	1803.64453	1065.35242	-224.37456	1850.30798	898.81470	-287.23636	1805.62427	878.97284	-288.65555	1888.92786	827.87396	-295.00568	1839.67615	802.51563	-296.37088	1918.30725	741.69391	-299.82889	1872.44214	710.04297	-247.10130	2121.04736	726.49146	-120.54227	2138.64307	698.70825	-176.54350	2210.87036	700.26300	-136.00320	2191.96313	685.95990	-171.46898	1768.20117	298.72025	295.69788	1825.74902	298.27618	-330.86838	
721	4.800	1884.82349	1028.96753	-27.91243	1886.19287	863.56134	-2.09532	1764.81055	1136.41479	-48.85796	1679.37903	989.89362	-39.61870	1806.86938	1082.18286	168.37570	1868.43616	895.44733	216.74780	1822.85791	889.01447	236.47987	1894.87646	823.76984	232.78558	1846.63086	813.76306	255.47232	1884.17688	751.60773	255.55916	1843.79236	724.60187	190.83530	2098.20679	739.96448	79.91940	2105.86621	714.44324	137.52838	2181.29028	710.93268	88.28651	2172.81616	691.34680	121.74670	1811.94153	1065.46130	-223.66164	1858.62488	898.91693	-286.42438	1813.99768	879.09106	-287.98544	1897.25317	827.97668	-294.33246	1847.97742	802.72229	-295.70682	1926.66895	741.75635	-299.09683	1880.75671	710.19720	-246.38411	2129.18457	726.42572	-119.71700	2147.02148	698.63947	-175.76627	2219.10205	700.28693	-135.26521	2200.28906	685.93799	-170.61395	1776.01294	298.81271	296.30780	1834.09021	298.29199	-330.22525	
722	4.807	1892.96582	1029.04053	-27.19812	1894.42188	863.52734	-1.43987	1772.87939	1136.43530	-48.17496	1687.56628	989.91510	-39.13050	1814.81421	1082.07617	169.08307	1876.43494	895.42590	217.34880	1830.83276	889.01324	237.17322	1902.94482	823.79022	233.36220	1854.67883	813.72968	256.11703	1892.22900	751.54486	256.22186	1851.89587	724.57098	191.48085	2106.34619	740.01862	80.68845	2114.00024	714.48175	138.25156	2189.42017	710.81708	89.08508	2180.87427	691.26111	122.49419	1820.26660	1065.54541	-222.95236	1867.03699	898.96118	-285.82031	1822.42126	879.20764	-287.32791	1905.64099	828.06732	-293.59250	1856.32544	802.83417	-295.01910	1935.00964	741.82855	-298.31329	1889.00916	710.33881	-245.77138	2137.49902	726.53784	-118.87394	2155.14575	698.67236	-175.00478	2227.38574	700.24194	-134.38289	2208.58252	685.83655	-169.76453	1783.88611	298.96533	296.89133	1842.32654	298.30038	-329.65970	
723	4.813	1901.06848	1029.12915	-26.40669	1902.97107	863.94763	-0.74200	1780.94958	1136.42249	-47.43979	1695.71497	989.90985	-38.67364	1822.71240	1082.11072	169.82336	1884.41345	895.35223	217.95308	1838.84717	888.91852	237.76743	1910.99292	823.70459	233.91312	1862.70715	813.69867	256.76242	1900.27844	751.44434	256.80685	1859.97375	724.44458	192.05283	2114.56030	739.96008	81.45628	2122.12744	714.40100	139.01398	2197.62134	710.72827	89.90647	2188.92627	691.12006	123.27600	1828.61829	1065.66858	-222.32401	1875.35828	899.18976	-285.11383	1830.73071	879.31268	-286.68945	1913.98181	828.21082	-292.98752	1864.75598	802.87024	-294.32199	1943.34131	741.91589	-297.86432	1897.30371	710.43433	-245.18341	2145.88696	726.34308	-118.25471	2163.50513	698.66986	-174.16531	2235.67505	700.29364	-133.44414	2216.83862	685.74084	-168.85248	1791.69128	299.12479	297.52258	1850.68054	298.31180	-328.90170	
724	4.820	1909.31824	1029.24585	-25.71994	1911.27014	864.27179	-0.04099	1788.99707	1136.46606	-46.73194	1703.94958	989.87018	-38.18110	1830.55408	1081.97778	170.47736	1892.38806	895.28577	218.56468	1846.86328	888.80975	238.38962	1918.99707	823.64014	234.54456	1870.75635	813.55377	257.32568	1908.26294	751.37085	257.42032	1867.92395	724.36487	192.65991	2122.59253	739.83087	82.29314	2130.10693	714.29742	139.81868	2205.68408	710.65192	90.78899	2197.18530	691.08960	124.12003	1836.91284	1065.75220	-221.57417	1883.67383	899.22058	-284.55243	1839.10425	879.44366	-286.03433	1922.36841	828.32343	-292.32971	1873.04810	803.02759	-293.72491	1951.78625	742.11505	-297.19855	1905.76404	710.46790	-244.51297	2153.94971	726.29016	-117.43170	2171.76294	698.59296	-173.37238	2243.80762	700.12427	-132.79834	2225.09302	685.75073	-168.10539	1799.55408	299.21118	298.05740	1858.91248	298.30359	-328.27881	
725	4.827	1917.42932	1029.24097	-25.01498	1919.02747	863.77039	0.45456	1797.06885	1136.44812	-46.08950	1712.08582	989.87756	-37.65562	1838.51831	1081.87976	171.11224	1900.42175	895.22174	219.20398	1854.89624	888.71521	239.00633	1927.02258	823.53021	235.08345	1878.77454	813.45795	257.92587	1916.29517	751.25934	258.01559	1875.98718	724.33636	193.23218	2130.79175	739.74725	83.07265	2138.31250	714.19720	140.60248	2213.82788	710.61450	91.65923	2205.30957	691.06604	125.05043	1845.23914	1065.85803	-220.91060	1892.01746	899.29486	-283.89371	1847.46692	879.47974	-285.40189	1930.64392	828.38342	-291.73480	1881.44470	803.11761	-293.06802	1960.17468	742.11847	-296.54099	1914.01355	710.63373	-243.98750	2162.21460	726.36987	-116.43938	2179.94238	698.58148	-172.61407	2252.09009	700.07330	-131.88094	2233.36035	685.68005	-167.16174	1807.46313	299.37518	298.76715	1867.17810	298.33380	-327.60315	
726	4.833	1925.53967	1029.32520	-24.26790	1926.99475	863.68579	1.11058	1805.20837	1136.46912	-45.40736	1720.20190	989.87177	-37.15498	1846.41394	1081.77893	171.77385	1908.41528	895.12585	219.74854	1862.84973	888.62500	239.59993	1935.05237	823.40448	235.66054	1886.72070	813.31860	258.46262	1924.25903	751.27789	258.66742	1884.10938	724.20038	193.70325	2138.94946	739.67090	83.84771	2146.37988	714.09003	141.38606	2221.95166	710.59454	92.53272	2213.43994	691.06342	125.49060	1853.60986	1065.94458	-220.24269	1900.46436	899.45911	-283.13138	1855.79993	879.60944	-284.84518	1939.02100	828.48413	-291.07346	1889.78503	803.18024	-292.49814	1968.56165	742.30145	-296.07623	1922.35938	710.71478	-243.41209	2170.44702	726.37122	-115.58683	2188.30835	698.60846	-171.62370	2260.33740	700.03699	-130.90897	2241.59302	685.73352	-166.25206	1815.30884	299.52426	299.40820	1875.51172	298.33499	-326.93536	
727	4.840	1933.65515	1029.44312	-23.56977	1935.22437	863.69580	1.72000	1813.28687	1136.46155	-44.69481	1728.41382	989.89014	-36.67220	1854.33289	1081.64514	172.45668	1916.31787	894.99445	220.43665	1870.89954	888.52826	240.17543	1942.97974	823.31458	236.28624	1894.71204	813.20758	259.02307	1932.15918	751.13586	259.24350	1891.78735	723.97168	193.82726	2147.01099	739.62073	84.67245	2154.46533	714.05017	142.17070	2230.04370	710.59686	93.43469	2221.53735	691.24280	126.60104	1861.84790	1065.98181	-219.62785	1908.79236	899.45111	-282.61093	1864.14661	879.72040	-284.22961	1947.37463	828.60925	-290.50488	1898.15283	803.28009	-291.89441	1976.86145	742.50769	-295.35550	1930.77759	710.71271	-242.81432	2178.58179	726.31659	-114.65321	2196.46313	698.62335	-170.86018	2268.41357	700.13580	-129.96381	2249.74048	685.83228	-165.38220	1823.19397	299.62518	300.05905	1883.73340	298.36801	-326.27078	
728	4.847	1941.92444	1029.51868	-22.82281	1943.51746	863.86548	2.40647	1821.37183	1136.45044	-44.06468	1736.64429	989.85510	-36.17149	1862.33789	1081.65601	173.32729	1924.39270	894.86163	221.00337	1878.74207	888.39722	240.76491	1950.93677	823.21112	236.78523	1902.62366	813.07086	259.59027	1940.12439	751.01831	259.86307	1899.86609	723.79755	194.34476	2155.06763	739.62030	85.52628	2162.50659	714.07465	142.99017	2238.13379	710.62762	94.34301	2229.58984	691.06543	127.65729	1870.24768	1066.10681	-219.02074	1917.15125	899.58856	-282.06558	1872.56628	879.77057	-283.59283	1955.82471	828.66400	-289.94543	1906.53015	803.39862	-291.30722	1985.33716	742.55511	-294.62222	1939.12146	710.81757	-242.30301	2186.69092	726.24811	-113.98702	2204.73291	698.69830	-170.00490	2276.71777	700.13788	-129.11743	2258.03833	685.86664	-164.52039	1831.12012	299.71094	300.69824	1892.04272	298.31311	-325.57297	
729	4.853	1949.99207	1029.60217	-22.13475	1951.56970	863.93146	3.04214	1829.48828	1136.45276	-43.40204	1744.79175	989.83685	-35.69069	1870.25244	1081.51794	173.97740	1932.17102	894.75006	221.61815	1886.65796	888.26862	241.38116	1958.86511	823.08484	237.45769	1910.47546	812.92133	260.15729	1947.95911	750.89825	260.43475	1907.77026	723.74744	194.89725	2163.22510	739.80383	86.31033	2170.41040	714.01447	143.72301	2246.27197	710.64020	95.15292	2237.59253	691.27765	128.37537	1878.60645	1066.17529	-218.35017	1925.58594	899.68927	-281.40179	1880.95898	879.88715	-283.04785	1964.18457	828.77472	-289.33032	1914.94250	803.53259	-290.78339	1993.68909	742.68463	-294.16318	1947.38879	710.90082	-241.75426	2194.83325	726.47693	-113.09653	2213.00488	698.77893	-169.15083	2284.75708	700.17609	-128.19083	2266.18457	686.09271	-163.54723	1839.07483	299.77386	301.35840	1900.30200	298.32458	-324.87094	
